<?xml version="1.0" standalone="no"?>
<!DOCTYPE svg PUBLIC "-//W3C//DTD SVG 20010904//EN"
 "http://www.w3.org/TR/2001/REC-SVG-20010904/DTD/svg10.dtd">
<svg version="1.0" xmlns="http://www.w3.org/2000/svg"
 width="1342.000000pt" height="517.000000pt" viewBox="0 0 1342.000000 517.000000"
 preserveAspectRatio="xMidYMid meet">

<g transform="translate(0.000000,517.000000) scale(0.100000,-0.100000)"
fill="#000000" stroke="none">
<path d="M2820 3775 l0 -415 -1237 -2 -1238 -3 -3 -1107 -2 -1108 -173 -3
-172 -3 178 -2 177 -2 0 103 c0 56 0 274 0 484 l0 382 62 4 63 3 -62 2 -63 2
0 395 0 394 83 3 82 3 3 123 3 122 119 0 119 0 4 -52 3 -53 2 58 2 57 -130 0
-130 0 0 -125 0 -126 -77 3 -78 3 -3 218 -2 217 1282 2 c706 1 1264 3 1241 5
l-43 4 0 80 0 79 124 0 125 0 4 -37 4 -38 1 43 2 42 -130 0 -130 0 0 325 0
325 248 -2 247 -3 3 -407 2 -407 -77 -4 c-43 -1 80 -3 272 -3 281 1 297 1 83
3 l-268 3 0 410 0 410 330 0 330 0 0 -409 c0 -318 -3 -410 -12 -414 -7 -3 52
-5 132 -4 l145 1 -127 3 -128 4 0 409 0 410 1010 0 1010 0 0 -410 0 -410 -252
-2 c-139 -2 67 -3 457 -3 391 0 584 2 430 5 l-280 5 0 405 0 405 338 3 337 2
0 -409 c0 -318 -3 -410 -12 -414 -7 -3 21 -5 62 -4 67 1 69 1 18 4 l-58 4 0
239 0 240 200 0 200 0 -2 -237 -3 -238 -50 -6 -50 -6 55 1 55 1 3 42 3 42 67
4 67 3 -67 2 -68 2 0 200 0 200 -205 0 -205 0 0 165 0 165 1010 0 1010 0 0
-405 0 -405 -282 -3 -283 -2 288 -3 287 -2 0 35 0 35 165 0 165 0 0 -55 c0
-52 1 -55 26 -55 46 0 54 -19 54 -128 0 -71 -4 -103 -13 -111 -9 -7 -118 -12
-333 -14 l-319 -2 322 -3 322 -2 3 -37 c2 -21 2 -185 0 -366 l-3 -327 -367 2
-367 3 0 368 0 367 -106 0 c-58 0 -154 3 -212 7 l-107 6 0 -106 0 -107 70 0
70 0 0 95 0 95 135 0 135 0 0 -365 0 -365 -129 0 -130 0 -3 33 c-2 24 -8 33
-25 35 -22 3 -23 5 -26 205 l-2 202 -3 -207 -2 -207 23 -3 c20 -3 22 -9 25
-65 3 -58 1 -62 -20 -65 l-23 -3 0 -190 -1 -190 3 188 3 187 25 0 c22 0 25 4
25 35 l0 35 130 0 130 0 3 -312 2 -313 3 313 2 312 370 0 370 0 0 -340 0 -340
-180 0 -180 0 0 -25 0 -25 -350 0 -349 0 -4 100 -3 100 0 -102 1 -103 230 -5
c127 -3 286 -3 355 0 120 5 125 6 128 27 3 23 4 23 203 23 l199 0 0 -195 0
-195 -215 0 -215 0 0 35 0 35 -110 0 -109 0 -4 93 -3 92 -2 -92 c-2 -78 -5
-92 -19 -96 -10 -3 39 -5 110 -6 l127 -1 0 -405 0 -405 -677 2 -678 3 0 400 0
400 200 5 c137 4 74 6 -200 6 -220 -1 -313 -2 -207 -3 l192 -3 0 -405 0 -405
-315 0 -315 0 0 405 0 404 73 4 c39 1 -61 3 -223 3 -221 -1 -241 -1 -77 -3
l217 -3 0 -405 0 -405 -345 0 -345 0 0 205 0 205 -40 0 -40 0 0 200 0 199 118
4 117 3 -122 2 -123 2 0 -210 c0 -180 2 -210 15 -210 13 0 15 -25 15 -165 l0
-165 -55 0 -55 0 0 -40 0 -40 140 0 140 0 0 -115 0 -115 -120 0 -120 0 0 -30
0 -30 -84 0 c-55 0 -191 18 -407 55 -178 31 -330 54 -338 53 -9 -2 140 -29
329 -61 269 -46 363 -58 425 -55 79 3 80 3 83 31 l3 27 250 0 249 0 0 120 0
120 1163 2 1162 3 3 372 2 373 220 0 220 0 0 204 c0 205 0 205 -22 208 l-23 3
-3 337 -2 338 1947 2 1948 3 3 698 2 697 -585 0 -585 0 -2 233 -3 232 -2925 0
-2925 0 -3 -377 -2 -378 -165 0 -165 0 0 380 0 380 -1610 0 -1610 0 0 -415z
m7820 -5 c0 -225 -4 -410 -8 -410 -5 0 -7 -25 -4 -55 4 -54 4 -55 -22 -55 -36
0 -88 49 -88 83 l0 27 -394 0 -394 0 0 45 c0 41 -2 45 -25 45 -20 0 -25 -5
-25 -25 0 -14 -13 -39 -29 -57 -27 -31 -32 -32 -119 -36 l-91 -4 -3 54 -3 53
-167 3 -168 2 0 370 0 370 770 0 770 0 0 -410z m800 0 c0 -403 0 -410 -20
-410 -11 0 -20 7 -20 15 0 12 -14 15 -70 15 -56 0 -70 -3 -70 -15 0 -13 -35
-15 -256 -15 -200 0 -255 -3 -251 -12 11 -32 -47 -88 -90 -88 -3 0 -3 23 -1
50 1 28 0 50 -4 50 -10 0 -11 804 -1 813 3 4 181 7 395 7 l388 0 0 -410z m780
175 l0 -235 245 0 245 0 0 -173 0 -174 -107 -5 c-60 -2 -180 -4 -269 -4 l-160
2 4 -53 c4 -52 4 -53 -22 -53 -36 0 -88 49 -88 83 l0 27 -309 0 -309 0 0 410
0 410 385 0 385 0 0 -235z m910 -385 c0 -11 -4 -20 -10 -20 -5 0 -10 -7 -10
-15 0 -8 -7 -15 -15 -15 -8 0 -15 -5 -15 -11 0 -14 -25 -39 -39 -39 -6 0 -11
-7 -11 -15 0 -10 -11 -15 -35 -15 -29 0 -35 4 -35 21 0 19 21 49 34 49 8 0 46
38 46 45 0 17 29 34 58 35 25 0 32 -4 32 -20z m-6760 -150 c0 -6 -60 -10 -160
-10 -100 0 -160 4 -160 10 0 6 60 10 160 10 100 0 160 -4 160 -10z m0 -30 c0
-6 -60 -10 -160 -10 -100 0 -160 4 -160 10 0 6 60 10 160 10 100 0 160 -4 160
-10z m4947 -35 c0 -8 -6 -15 -13 -15 -15 0 -26 15 -17 24 12 11 30 6 30 -9z
m2073 -130 l0 -135 -225 0 c-124 0 -225 4 -225 8 0 5 -27 6 -60 4 l-60 -4 0
29 c0 16 7 39 16 51 17 25 67 54 86 50 9 -2 14 16 16 65 l3 67 224 0 225 0 0
-135z m-2022 89 c1 -24 -3 -34 -11 -31 -15 5 -18 67 -2 67 7 0 12 -15 13 -36z
m-48 -14 c0 -11 -7 -20 -15 -20 -8 0 -15 9 -15 20 0 11 7 20 15 20 8 0 15 -9
15 -20z m-689 -142 c1 -24 5 -101 8 -173 l8 -130 1 113 2 112 75 0 c74 0 75 0
75 26 0 34 50 84 85 84 27 0 27 -1 23 -55 l-5 -55 84 0 83 0 2 -112 2 -113 3
113 c3 90 6 112 18 112 11 0 15 13 15 55 0 52 1 55 25 55 33 0 74 -40 81 -80
l7 -30 448 0 449 0 0 26 c0 34 50 84 85 84 27 0 27 -1 23 -56 -5 -54 -4 -55
19 -50 12 4 79 3 148 0 l125 -7 -2 -366 -3 -366 -717 -3 -718 -2 -2 202 -2
203 -6 -200 -5 -200 -207 -3 -208 -2 -2 202 -3 203 -2 -203 -3 -202 -568 2
-567 3 -3 323 -2 322 32 0 33 0 -3 55 -4 55 32 0 c38 0 78 -37 86 -80 5 -25
11 -30 35 -30 28 0 29 2 29 45 l0 45 391 0 c317 0 390 2 386 13 -10 25 22 77
55 92 52 22 58 19 59 -27z m1965 14 c29 -23 45 -57 38 -76 -6 -14 33 -16 375
-16 l381 0 0 -370 0 -370 -430 0 -430 0 0 425 0 425 23 0 c12 0 32 -8 43 -18z
m-4158 -117 c-2 -6 -9 -9 -16 -9 -10 2 -10 -1 -1 -12 9 -12 4 -14 -31 -14 -36
0 -41 2 -30 14 6 8 17 13 24 10 7 -3 19 2 26 11 14 16 34 16 28 0z m-48 -80
c0 -8 -7 -15 -15 -15 -8 0 -15 7 -15 15 0 8 7 15 15 15 8 0 15 -7 15 -15z m50
-42 c-1 -34 -2 -36 -14 -20 -8 10 -12 27 -9 37 9 33 23 22 23 -17z m-50 -13
c0 -11 -7 -20 -15 -20 -8 0 -15 9 -15 20 0 11 7 20 15 20 8 0 15 -9 15 -20z
m-2000 -2220 l0 -200 -75 0 -75 0 0 30 c0 30 1 30 55 30 l55 0 0 170 c0 163 1
170 20 170 19 0 20 -7 20 -200z m378 -327 l3 -113 -126 0 -125 0 0 108 c0 60
3 112 7 116 4 3 59 5 122 4 l116 -3 3 -112z"/>
<path d="M13081 3553 c-1 -6 -9 -13 -18 -15 -11 -2 -14 -6 -8 -10 16 -10 38 7
32 23 -3 9 -6 9 -6 2z"/>
<path d="M13030 3493 c0 -10 4 -14 8 -8 4 6 11 13 16 18 5 4 2 7 -7 7 -10 0
-17 -8 -17 -17z"/>
<path d="M12988 3453 c7 -3 16 -2 19 1 4 3 -2 6 -13 5 -11 0 -14 -3 -6 -6z"/>
<path d="M7713 3444 c13 -4 17 -16 17 -50 l0 -44 250 0 250 0 0 44 c0 43 1 45
33 49 31 4 31 4 -5 5 l-38 2 0 -45 0 -45 -239 0 -240 0 -3 42 c-2 34 -7 43
-23 45 -16 1 -16 1 -2 -3z"/>
<path d="M8388 3443 c6 -2 12 -20 12 -38 0 -19 3 -36 8 -38 4 -3 5 15 3 39 -2
33 -7 44 -20 43 -10 0 -11 -2 -3 -6z"/>
<path d="M3018 3353 c12 -2 32 -2 45 0 12 2 2 4 -23 4 -25 0 -35 -2 -22 -4z"/>
<path d="M4557 3353 c105 -2 281 -2 390 0 109 1 23 2 -192 2 -214 0 -304 -1
-198 -2z"/>
<path d="M5283 3353 c26 -2 68 -2 95 0 26 2 4 3 -48 3 -52 0 -74 -1 -47 -3z"/>
<path d="M5060 3125 l0 -44 -82 -3 -83 -3 0 -193 -1 -192 3 190 3 190 80 0
c73 0 80 -2 80 -20 0 -18 7 -20 60 -20 l60 0 0 -225 0 -225 -145 0 -145 0 2
-47 1 -48 4 43 4 42 140 0 139 0 2 -147 c1 -82 3 -131 5 -110 l4 37 175 0 174
0 0 -25 c0 -14 -4 -25 -10 -25 -6 0 -10 -42 -10 -105 0 -58 4 -105 9 -105 5 0
12 -8 14 -17 4 -17 5 -17 6 0 1 14 11 17 56 17 l55 0 0 105 0 105 -55 0 -55 0
-2 78 c-1 54 -3 63 -5 30 l-4 -48 -176 0 -176 0 5 405 4 405 -68 0 -68 0 0
-45z m54 10 c4 -10 -1 -15 -16 -15 -17 0 -18 2 -8 15 7 8 14 15 15 15 2 0 5
-7 9 -15z m52 -43 c2 -45 -21 -41 -24 4 -2 25 1 35 10 32 7 -3 13 -19 14 -36z
m-46 -12 c0 -11 -7 -20 -15 -20 -8 0 -15 9 -15 20 0 11 7 20 15 20 8 0 15 -9
15 -20z m457 -815 c0 -8 -6 -15 -14 -15 -14 0 -17 12 -6 23 11 11 20 8 20 -8z
m53 -40 c0 -19 -4 -35 -10 -35 -5 0 -10 3 -11 8 -6 46 -4 62 8 62 8 0 13 -12
13 -35z m-50 -15 c0 -11 -7 -20 -15 -20 -8 0 -15 9 -15 20 0 11 7 20 15 20 8
0 15 -9 15 -20z m30 -59 c0 -5 -7 -14 -15 -21 -12 -10 -18 -10 -30 0 -23 19
-18 30 15 30 17 0 30 -4 30 -9z"/>
<path d="M960 3101 c0 -40 0 -40 -42 -44 l-43 -4 48 -1 47 -2 0 40 0 40 155 0
155 0 0 -34 c0 -19 3 -37 8 -39 4 -3 5 15 3 39 l-3 44 -164 0 -164 0 0 -39z"/>
<path d="M1983 3133 l347 -3 0 -110 c0 -67 -4 -110 -10 -110 -6 0 -10 -30 -10
-70 0 -40 4 -70 10 -70 6 0 10 -101 10 -284 l0 -285 -47 -4 -48 -4 50 1 50 1
3 288 2 287 55 0 55 0 0 70 0 70 -55 0 -55 0 0 115 0 115 -352 -2 -353 -3 348
-2z m387 -258 c0 -8 -7 -15 -15 -15 -16 0 -20 12 -8 23 11 12 23 8 23 -8z m50
-40 c0 -19 -4 -35 -10 -35 -5 0 -10 3 -11 8 -5 47 -3 62 8 62 8 0 13 -13 13
-35z m-50 -15 c0 -11 -7 -20 -15 -20 -8 0 -15 9 -15 20 0 11 7 20 15 20 8 0
15 -9 15 -20z"/>
<path d="M4770 3067 c0 -16 -50 -17 -617 -20 l-618 -2 618 -3 c549 -2 618 0
624 13 3 9 3 19 -1 22 -3 4 -6 -1 -6 -10z"/>
<path d="M6370 2340 l0 -740 63 2 62 2 -57 3 -58 4 0 169 0 170 30 0 c23 0 30
-4 30 -20 0 -18 7 -20 85 -20 l86 0 -3 -155 -3 -155 35 1 c30 2 31 3 8 6 l-27
4 -3 152 -3 152 -82 3 c-75 3 -83 5 -83 22 0 16 -7 20 -35 20 l-35 0 0 554 0
555 53 4 52 3 -57 2 -58 2 0 -740z"/>
<path d="M6598 3073 c9 -3 12 -46 12 -164 l0 -159 408 2 407 3 -402 2 -403 3
0 155 0 155 378 3 377 2 -395 2 c-217 1 -389 -1 -382 -4z"/>
<path d="M7518 3073 l62 -4 0 -154 0 -154 -32 -4 -33 -4 33 -1 32 -2 0 -570 0
-570 -402 -3 -403 -2 425 -1 c234 -1 417 0 408 3 -17 4 -18 26 -18 274 l0 269
180 0 180 0 0 -270 0 -269 -122 -4 -123 -3 148 -2 147 -2 0 -50 0 -50 70 0 70
0 0 50 c0 28 5 50 10 50 6 0 10 8 10 18 0 14 -2 15 -10 2 -8 -13 -10 -12 -10
3 0 14 -10 17 -70 17 -56 0 -70 -3 -70 -15 0 -8 -9 -15 -20 -15 -19 0 -20 7
-20 190 l0 189 97 3 c85 3 98 5 99 21 2 13 1 13 -3 2 -4 -13 -20 -15 -96 -13
l-92 3 -3 73 -3 72 81 0 80 0 0 -45 0 -45 70 0 70 0 0 70 0 70 -70 0 c-63 0
-70 -2 -70 -20 0 -15 -7 -20 -25 -20 -25 0 -25 1 -25 85 l0 85 -137 -2 -138
-2 133 -3 132 -4 0 -79 0 -80 -235 0 -235 0 0 175 0 175 288 2 287 3 0 138 1
137 -3 -135 -4 -135 -282 2 -282 3 -3 272 -2 272 37 4 c21 2 -9 4 -67 3 -58 0
-77 -1 -42 -3z m682 -933 c0 -38 -2 -40 -30 -40 -28 0 -30 2 -30 40 0 38 2 40
30 40 28 0 30 -2 30 -40z m36 -30 c-1 -26 -14 -44 -17 -22 0 4 -2 17 -3 30 -2
12 3 22 10 22 7 0 11 -12 10 -30z m-170 -524 c8 -35 1 -60 -19 -64 -12 -2 -17
3 -17 17 0 12 6 21 15 21 8 0 15 5 15 10 0 6 -7 10 -15 10 -16 0 -20 12 -8 23
12 13 23 7 29 -17z m44 -33 c-1 -34 -2 -36 -14 -20 -8 10 -12 27 -9 37 9 33
23 22 23 -17z"/>
<path d="M8158 2128 c9 -9 15 -9 24 0 9 9 7 12 -12 12 -19 0 -21 -3 -12 -12z"/>
<path d="M7947 3073 l212 -3 4 -78 3 -77 2 83 2 82 -217 -2 -218 -3 212 -2z"/>
<path d="M5835 2335 c0 -407 1 -572 2 -367 2 206 2 539 0 740 -1 202 -2 34 -2
-373z"/>
<path d="M1423 3053 c16 -4 17 -35 17 -474 l0 -469 -437 0 -438 0 3 -110 3
-110 62 2 62 2 -57 3 -58 4 0 99 0 100 250 0 250 0 0 -100 0 -99 -107 -4 -108
-3 107 -2 107 -2 4 -97 c1 -54 4 -7 5 105 l2 202 175 0 175 0 0 -45 c0 -25 3
-45 8 -45 4 0 6 234 4 519 l-2 520 42 4 c29 2 22 4 -22 4 -36 0 -57 -1 -47 -4z"/>
<path d="M3003 3043 l177 -3 0 -285 0 -285 -162 -2 -163 -2 160 -6 160 -5 0
-235 0 -235 -77 -3 -78 -3 0 -169 0 -169 -97 -4 -98 -3 97 -2 c82 -2 97 -5
101 -19 3 -10 5 66 6 170 l1 187 75 0 75 0 0 -180 c0 -178 0 -181 -22 -190
-15 -6 25 -8 117 -7 138 1 138 1 28 4 l-113 4 0 359 0 360 849 0 850 0 4 -27
c2 -16 4 4 4 42 0 39 -2 53 -4 33 l-4 -38 -850 0 -849 0 0 355 0 354 118 4
c64 1 -18 3 -183 3 -165 0 -220 -2 -122 -3z"/>
<path d="M6022 2763 l-2 -273 68 2 67 2 -62 3 -63 4 -3 267 -2 267 -3 -272z"/>
<path d="M2820 2915 c0 -12 -28 -15 -167 -17 l-168 -3 0 -555 0 -555 167 -3
c148 -2 167 -4 171 -20 3 -9 5 250 6 576 0 325 -1 592 -4 592 -3 0 -5 -7 -5
-15z m0 -575 l0 -550 -165 0 -165 0 0 543 c0 299 3 547 7 550 3 4 78 7 165 7
l158 0 0 -550z"/>
<path d="M2680 2795 c0 -10 7 -15 18 -13 21 4 19 22 -2 26 -10 2 -16 -3 -16
-13z"/>
<path d="M4892 1883 l-2 -282 -37 -4 c-37 -4 -37 -4 7 -5 l45 -2 -3 212 c-4
350 -8 381 -10 81z"/>
<path d="M6022 1913 l3 -248 2 242 3 242 63 4 62 3 -67 2 -68 2 2 -247z"/>
<path d="M2232 2053 l-2 -33 -337 -1 c-186 -1 -330 -3 -320 -6 15 -4 17 -20
17 -164 l0 -159 -187 -2 -188 -3 0 -175 0 -175 50 -1 50 -1 -47 4 -48 4 0 170
0 169 185 0 185 0 0 -169 0 -170 -42 -4 -43 -4 48 -1 47 -2 0 175 0 175 370 0
c204 0 370 3 370 8 0 4 -165 7 -367 7 l-368 0 0 155 0 155 362 3 362 2 4 -102
3 -103 0 105 -1 105 -47 3 c-44 3 -47 5 -51 35 l-4 32 -1 -32z"/>
<path d="M5540 1910 l0 -40 -220 0 -220 0 0 -134 0 -135 -52 -4 c-29 -2 55 -3
187 -3 196 0 207 1 58 3 l-183 3 0 130 0 130 215 0 214 0 4 -92 c2 -76 3 -67
5 45 1 75 0 137 -3 137 -3 0 -5 -18 -5 -40z"/>
<path d="M8154 1815 c0 -49 1 -71 3 -48 2 23 2 64 0 90 -2 26 -3 8 -3 -42z"/>
<path d="M3808 1593 c166 -2 438 -2 605 0 166 1 30 2 -303 2 -333 0 -469 -1
-302 -2z"/>
<path d="M1082 1453 l-2 -113 -130 0 c-109 0 -130 2 -130 15 0 12 -14 15 -70
15 -55 0 -70 -3 -70 -15 0 -11 -21 -15 -107 -18 l-108 -3 108 -2 107 -2 0 -50
0 -50 70 0 70 0 0 50 0 50 153 1 c83 1 144 3 135 6 -15 4 -18 21 -21 116 l-3
112 -2 -112z m-348 -118 c4 -10 -1 -15 -14 -15 -20 0 -26 11 -13 23 10 11 20
8 27 -8z m52 -43 c1 -18 -3 -32 -7 -32 -5 0 -9 3 -10 8 0 4 -3 20 -5 35 -4 21
-1 28 8 25 7 -3 13 -19 14 -36z m-46 -12 c0 -11 -7 -20 -15 -20 -8 0 -15 9
-15 20 0 11 7 20 15 20 8 0 15 -9 15 -20z"/>
<path d="M3458 1356 c-5 -87 -6 -86 73 -86 55 0 69 3 69 15 0 14 29 15 221 15
122 -1 224 1 227 4 3 3 -97 6 -221 6 l-227 0 0 50 0 50 -69 0 -69 0 -4 -54z
m66 19 c3 -9 0 -15 -9 -15 -8 0 -15 -4 -15 -10 0 -5 7 -10 15 -10 8 0 15 -9
15 -20 0 -13 -7 -20 -20 -20 -17 0 -20 7 -20 38 0 38 6 52 21 52 4 0 9 -7 13
-15z m51 -43 c1 -21 -3 -32 -12 -32 -8 0 -13 13 -13 36 0 45 23 41 25 -4z"/>
<path d="M3203 1321 c-5 -18 -15 -21 -92 -24 l-86 -3 93 -2 c86 -2 92 -1 92
18 0 18 7 20 60 20 l60 0 0 -220 0 -220 -145 0 -144 0 -4 158 -3 157 -2 -162
-2 -162 148 -3 147 -3 3 -192 2 -193 -250 0 -250 0 0 105 0 104 153 4 152 3
-152 2 -153 2 -3 303 c-2 274 -3 263 -5 -115 l-2 -418 228 -2 227 -3 5 -35 5
-35 1380 0 1380 0 3 53 3 52 45 0 44 0 0 70 0 70 -45 0 -45 0 0 330 0 330
-292 -2 -293 -3 288 -2 287 -3 0 -325 c0 -318 0 -325 -20 -325 -18 0 -20 -7
-20 -70 0 -63 2 -70 20 -70 11 0 20 -4 20 -10 0 -6 -120 -10 -340 -10 l-340 0
0 220 0 220 -189 0 -190 0 -4 38 -4 37 1 -40 1 -40 188 -3 187 -2 0 -215 0
-215 -665 0 -665 0 -3 348 -2 347 -3 -347 -2 -348 -335 0 -335 0 -2 423 -3
422 -63 3 c-57 3 -64 1 -69 -17z m2887 -731 c0 -39 -1 -40 -35 -40 -34 0 -35
1 -35 40 0 39 1 40 35 40 34 0 35 -1 35 -40z m31 -13 c-1 -4 -1 -16 -1 -27 0
-11 -4 -20 -10 -20 -5 0 -10 14 -10 31 0 17 5 29 11 27 6 -2 10 -7 10 -11z
m-81 -132 l0 -35 -1375 0 -1375 0 0 35 0 35 1375 0 1375 0 0 -35z"/>
<path d="M6043 575 c7 -7 14 -10 17 -6 3 3 9 9 13 12 4 4 -3 7 -17 7 -19 0
-22 -3 -13 -13z"/>
<path d="M4323 1303 c92 -2 242 -2 335 0 92 1 16 3 -168 3 -184 0 -260 -2
-167 -3z"/>
<path d="M4948 1303 c21 -4 22 -9 24 -106 l2 -102 5 100 6 100 190 5 190 6
-220 0 c-121 1 -210 -1 -197 -3z"/>
<path d="M8373 1303 c70 -2 184 -2 255 0 70 1 12 3 -128 3 -140 0 -198 -2
-127 -3z"/>
<path d="M588 1133 l62 -4 0 -322 0 -322 -162 -162 -163 -163 -162 162 c-90
90 -163 158 -163 153 0 -6 72 -82 160 -170 l160 -160 170 170 170 170 0 322 0
323 140 0 140 0 0 -400 0 -400 450 0 450 0 0 400 0 400 165 0 165 0 0 -318 0
-317 173 -173 c151 -151 175 -171 186 -158 12 14 145 16 1301 16 l1287 0 484
-80 c266 -43 485 -78 487 -76 5 6 -18 10 -512 91 l-458 75 -1288 0 c-1156 0
-1289 -2 -1301 -16 -11 -13 -34 6 -181 153 l-168 168 0 322 0 323 -507 -2
c-399 -2 -437 -3 -175 -5 l332 -3 0 -395 0 -395 -440 0 -440 0 0 395 0 394
108 4 c59 1 -37 3 -213 3 -176 0 -292 -1 -257 -3z"/>
</g>
</svg>
