<?xml version="1.0" standalone="no"?>
<!DOCTYPE svg PUBLIC "-//W3C//DTD SVG 20010904//EN"
 "http://www.w3.org/TR/2001/REC-SVG-20010904/DTD/svg10.dtd">
<svg version="1.0" xmlns="http://www.w3.org/2000/svg"
 width="100%" height="100%" viewBox="0 0 664.000000 326.000000"
 preserveAspectRatio="xMidYMid meet">

<g transform="translate(0.000000,326.000000) scale(0.100000,-0.100000)"
fill="#000000" stroke="none">
<path d="M3924 3016 c-3 -7 -4 -33 -1 -57 3 -44 4 -43 5 9 l2 52 1104 0 1105
0 4 -42 4 -43 1 48 2 47 -1110 0 c-937 0 -1111 -2 -1116 -14z"/>
<path d="M787 2933 c-4 -3 -7 -75 -7 -159 0 -112 -3 -154 -12 -157 -10 -4 -10
-6 0 -6 7 -1 12 -14 12 -31 0 -23 -4 -30 -20 -30 -16 0 -20 -7 -20 -35 0 -28
4 -35 19 -35 14 0 21 -8 23 -27 2 -22 9 -29 31 -31 25 -3 27 -1 25 35 -1 38
-1 38 -5 5 -3 -25 -9 -32 -21 -30 -19 3 -30 48 -13 48 6 0 11 14 11 31 0 24 4
30 16 25 8 -3 12 -2 9 4 -3 6 -15 10 -26 10 -17 0 -19 7 -19 65 l0 65 40 0 39
0 3 -127 3 -128 63 -5 c34 -3 62 -2 62 3 0 4 -7 7 -15 7 -13 0 -15 21 -15 125
l0 124 93 4 92 3 -97 2 -98 2 0 -130 0 -130 -40 0 -40 0 0 129 0 130 -42 3
-43 3 0 115 0 115 217 0 c119 0 214 3 211 8 -5 9 -427 10 -436 0z m-7 -413 c0
-11 -7 -20 -15 -20 -8 0 -15 9 -15 20 0 11 7 20 15 20 8 0 15 -9 15 -20z m17
-22 c-3 -8 -6 -5 -6 6 -1 11 2 17 5 13 3 -3 4 -12 1 -19z"/>
<path d="M2561 2898 c1 -18 2 -19 6 -5 4 16 21 17 244 15 131 -2 239 0 239 5
0 4 -110 7 -245 7 l-245 0 1 -22z"/>
<path d="M1220 2785 c-1 -55 -1 -138 0 -185 1 -47 -2 -176 -6 -287 l-7 -202
-56 -4 -56 -3 58 -2 57 -2 0 -90 c0 -49 -4 -90 -9 -90 -4 0 -28 16 -52 35 -33
26 -53 34 -79 33 l-35 -1 33 -4 c19 -3 54 -20 79 -39 24 -19 49 -34 53 -34 5
0 11 -53 12 -117 l3 -118 140 -3 c96 -2 142 -6 147 -15 5 -8 8 -7 8 6 0 14 -9
17 -60 17 l-59 0 -4 63 -3 62 -2 -62 -2 -63 -80 0 -80 0 0 115 0 115 79 0 c67
0 80 -3 84 -17 4 -14 5 -12 6 5 1 21 -2 22 -84 22 l-85 0 0 45 0 44 98 4 97 3
-99 2 -99 2 6 242 c4 133 7 317 7 409 l0 169 193 3 192 2 -192 3 c-173 2 -192
4 -196 20 -3 9 -6 -28 -7 -83z"/>
<path d="M3042 2643 c-2 -201 -4 -222 -19 -226 -17 -4 -17 -5 0 -6 10 0 20 5
23 12 2 7 3 109 1 227 l-2 215 -3 -222z"/>
<path d="M6143 2825 l2 -40 80 -1 80 -1 -75 6 -75 6 -7 35 -6 35 1 -40z"/>
<path d="M1973 2843 l147 -4 0 -209 0 -210 58 0 57 0 3 -200 3 -200 -268 -2
-268 -2 210 -6 210 -5 0 -160 0 -160 -187 -3 -188 -2 0 -25 c0 -24 0 -24 -122
-28 l-123 -3 123 -2 122 -2 0 -270 0 -270 -140 0 -140 0 -1 133 c-1 72 -3 124
-6 115 -4 -16 -19 -18 -124 -18 l-120 0 3 153 3 152 40 6 40 7 -45 -2 -45 -1
-3 -77 c-3 -70 -5 -77 -25 -81 l-22 -4 23 -2 c21 -1 22 -5 22 -76 l0 -75 -55
0 -55 0 0 54 c0 52 1 55 28 59 25 4 25 4 -5 6 l-33 1 0 -166 0 -165 -150 3
-150 3 2 -135 c1 -80 3 -105 5 -62 l4 72 69 0 70 0 0 -69 0 -70 -47 -4 c-47
-3 -46 -4 7 -4 l56 0 -4 66 c-2 36 -5 72 -7 78 -3 9 -27 13 -75 13 l-70 0 0
50 0 50 150 0 149 0 3 103 3 102 53 3 52 3 0 -230 0 -231 -107 -2 -108 -2 95
-4 c150 -5 135 -30 135 235 l0 228 117 3 118 3 2 -233 3 -233 28 -1 c25 -1 25
-1 2 3 -25 4 -25 4 -25 119 l0 114 45 0 45 0 0 -75 c0 -68 -2 -75 -20 -75 -14
0 -20 -6 -19 -22 1 -17 2 -19 6 -5 3 12 14 17 38 17 24 0 35 -5 38 -17 4 -14
5 -12 6 5 1 16 -5 22 -19 22 -18 0 -20 7 -20 75 l0 75 45 0 45 0 0 -116 0
-116 -30 4 c-18 3 -27 1 -22 -4 5 -5 40 -8 78 -6 l69 3 1 35 2 35 -5 -33 c-4
-31 -6 -33 -41 -30 l-37 3 -3 112 -3 113 40 0 40 0 4 -58 c2 -31 4 104 5 300
l2 358 252 2 c233 3 253 4 254 21 1 12 1 13 -3 2 -3 -11 -19 -15 -64 -15 l-59
0 0 36 0 36 65 -4 65 -3 -2 45 c-1 44 -1 44 -5 8 l-4 -38 -60 0 -59 0 0 125 0
125 60 0 60 0 2 -62 1 -63 6 65 c4 48 3 66 -6 68 -10 3 -13 40 -13 143 l0 139
25 0 c22 0 25 4 25 35 0 31 -3 35 -25 35 -24 0 -25 3 -25 59 0 48 3 60 18 64
13 4 11 5 -5 6 -20 1 -23 -4 -23 -34 l0 -35 -55 0 -55 0 0 205 0 206 113 -3
112 -3 3 -163 c2 -161 2 -163 -20 -172 -23 -9 -23 -9 -1 -9 12 -1 24 -9 26
-18 3 -10 5 35 6 100 l1 117 94 0 c82 0 95 -2 99 -17 4 -14 5 -12 6 5 1 21 -2
22 -99 22 l-100 0 0 70 0 69 83 4 c45 1 -78 3 -273 3 -195 0 -289 -2 -207 -3z
m297 -503 c0 -11 -7 -20 -15 -20 -8 0 -15 9 -15 20 0 11 7 20 15 20 8 0 15 -9
15 -20z m17 -22 c-3 -8 -6 -5 -6 6 -1 11 2 17 5 13 3 -3 4 -12 1 -19z"/>
<path d="M3923 2780 c0 -25 2 -35 4 -22 2 12 2 32 0 45 -2 12 -4 2 -4 -23z"/>
<path d="M6353 2783 c15 -4 17 -17 17 -99 l0 -94 -72 -2 c-40 -1 6 -5 102 -8
l175 -5 3 -210 c2 -189 1 -211 -15 -222 -15 -12 -15 -13 0 -13 14 0 17 -15 20
-102 1 -57 3 46 2 227 l0 330 -102 3 -103 3 0 99 c0 97 -1 100 -22 99 -17 -1
-19 -2 -5 -6z"/>
<path d="M5362 2648 c-1 -34 -7 -58 -14 -61 -7 -3 -3 -6 10 -6 14 -1 26 -10
32 -23 l9 -23 0 22 c1 12 -5 26 -13 30 -9 5 -16 29 -19 63 l-3 55 -2 -57z"/>
<path d="M5453 2693 c9 -2 23 -2 30 0 6 3 -1 5 -18 5 -16 0 -22 -2 -12 -5z"/>
<path d="M5564 2643 l1 -58 88 -1 87 0 -84 3 -85 4 -4 54 -4 55 1 -57z"/>
<path d="M3918 2616 c-5 -43 -8 -180 -8 -303 l0 -223 173 2 172 2 -167 3 -168
3 0 240 0 240 53 2 52 2 -47 3 -47 4 -3 52 c-3 49 -3 47 -10 -27z"/>
<path d="M60 2601 c0 -44 -4 -83 -10 -86 -6 -3 -9 -14 -9 -23 1 -15 2 -15 6 1
2 9 9 17 14 17 5 0 9 6 9 14 0 8 10 17 23 19 l22 4 -22 2 c-21 1 -23 6 -23 61
l0 60 40 0 40 0 0 -45 c0 -33 -4 -45 -15 -45 -8 0 -15 -3 -15 -7 0 -5 14 -8
30 -8 17 0 30 3 30 8 0 4 -4 7 -10 7 -5 0 -10 20 -10 45 l0 45 40 0 40 0 0
-59 c0 -57 -1 -60 -27 -64 l-28 -4 28 -2 c31 -1 39 -31 7 -31 -18 0 -20 -7
-20 -75 l0 -75 28 1 c23 2 24 2 5 6 -18 3 -23 11 -23 34 0 26 3 29 34 29 24 0
36 -5 39 -17 3 -10 5 0 5 22 0 22 -2 32 -5 23 -3 -13 -15 -18 -39 -18 -31 0
-34 3 -34 30 0 23 4 30 20 30 18 0 20 7 20 85 l0 85 40 0 40 0 0 -85 0 -85 48
2 47 1 -42 4 -43 4 0 80 0 79 50 0 49 0 4 -67 3 -68 2 68 2 67 55 0 55 0 0
-79 0 -80 -37 -4 -38 -4 43 -1 42 -2 0 90 0 90 -255 0 -255 0 0 -79z"/>
<path d="M618 2673 c21 -4 22 -9 22 -83 0 -74 -1 -79 -22 -83 -20 -4 -19 -4 5
-6 17 -1 27 4 27 14 0 7 8 19 18 24 16 10 16 10 0 11 -13 0 -18 8 -18 29 0 20
6 31 18 34 16 4 16 5 0 6 -13 1 -18 10 -18 31 0 26 -3 30 -27 29 -24 -2 -25
-2 -5 -6z"/>
<path d="M2562 2527 l-2 -108 -100 3 c-55 2 -100 0 -100 -4 0 -5 52 -8 116 -8
95 0 114 2 106 13 -6 7 -13 58 -15 113 l-3 99 -2 -108z"/>
<path d="M4182 2583 l117 -4 4 -27 4 -27 2 27 1 27 133 4 c72 1 17 3 -123 3
-140 0 -202 -2 -138 -3z"/>
<path d="M4658 2583 l42 -4 0 -240 0 -239 -164 0 c-157 0 -165 1 -169 20 -4
17 -4 16 -3 -2 l1 -23 320 0 c176 -1 254 1 173 2 l-148 4 0 239 0 239 88 4
c54 2 36 3 -48 3 -74 0 -116 -1 -92 -3z"/>
<path d="M4987 2583 l63 -4 3 -227 2 -227 3 227 2 227 113 4 c61 1 31 3 -68 3
-99 0 -152 -1 -118 -3z"/>
<path d="M5788 2583 c9 -3 12 -60 12 -234 0 -126 3 -229 8 -229 4 0 7 102 7
227 l0 228 115 6 115 5 -135 1 c-74 1 -129 -1 -122 -4z"/>
<path d="M6118 2583 l32 -4 0 -240 0 -239 -144 0 c-121 0 -145 3 -149 15 -4
11 -4 10 -3 -2 1 -16 16 -18 154 -21 140 -2 152 -1 152 15 0 10 1 123 3 251
l2 232 -40 -2 c-37 -1 -37 -2 -7 -5z"/>
<path d="M5390 2300 l-5 -195 -137 -3 c-124 -2 -137 -1 -141 15 -4 14 -5 13
-6 -4 l-1 -23 330 0 330 0 -1 23 c-1 16 -2 18 -6 5 -4 -16 -21 -18 -179 -18
l-174 0 -2 198 -3 197 -5 -195z"/>
<path d="M332 2423 l1 -48 4 43 4 43 115 -3 c63 -2 114 0 114 5 0 4 -54 7
-120 7 l-120 0 2 -47z"/>
<path d="M4302 2303 c-1 -95 1 -173 6 -173 4 0 6 53 4 117 -4 211 -8 231 -10
56z"/>
<path d="M648 2405 l4 -55 -40 0 c-41 0 -41 0 -45 43 l-4 42 -1 -47 -2 -47 43
-3 42 -3 0 -205 c0 -205 0 -205 -22 -208 -13 -2 -23 -7 -23 -12 0 -4 12 -5 28
-1 l27 7 3 272 c1 150 -1 272 -5 272 -5 0 -6 -25 -5 -55z"/>
<path d="M42 1733 c-2 -635 -4 -723 -17 -723 -8 0 -15 -4 -15 -8 0 -5 15 -6
33 -4 17 3 26 7 20 9 -10 4 -13 74 -13 309 l0 304 300 0 300 0 0 -60 c0 -45
-4 -61 -17 -70 -16 -10 -16 -10 2 -8 19 3 20 12 23 151 2 139 4 147 22 147 16
0 20 7 20 35 0 28 -4 35 -19 35 -11 0 -23 5 -26 10 -3 6 -16 10 -28 9 -20 -1
-20 -2 3 -9 14 -4 19 -8 13 -9 -16 -1 -18 -71 -3 -71 7 0 10 -27 8 -72 l-3
-73 -298 -3 -297 -2 2 352 3 353 140 5 140 6 -142 2 -142 2 -4 53 c-2 28 -4
-273 -5 -670z m618 97 c0 -5 -5 -10 -11 -10 -5 0 -7 5 -4 10 3 6 8 10 11 10 2
0 4 -4 4 -10z m25 -20 c3 -5 1 -10 -4 -10 -6 0 -11 5 -11 10 0 6 2 10 4 10 3
0 8 -4 11 -10z m-25 -10 c0 -5 -4 -10 -10 -10 -5 0 -10 5 -10 10 0 6 5 10 10
10 6 0 10 -4 10 -10z"/>
<path d="M2743 2413 c43 -2 110 -2 150 0 40 1 5 3 -78 3 -82 0 -115 -2 -72 -3z"/>
<path d="M2500 2355 c0 -32 2 -35 30 -35 30 0 30 -1 30 -55 l0 -55 -45 0 -45
0 0 65 c0 36 -3 65 -7 65 -5 0 -6 -29 -5 -65 l4 -65 -46 0 -46 0 0 59 c0 54 2
60 23 64 19 4 18 4 -5 6 l-28 1 0 -70 0 -70 100 0 100 0 0 -35 0 -35 -94 0
c-82 0 -95 2 -99 18 -4 13 -5 11 -6 -5 l-1 -23 205 0 205 0 0 -115 0 -115 -55
0 -55 0 0 -65 0 -65 -144 0 c-106 0 -146 3 -149 13 -3 6 -5 -37 -4 -98 l1
-110 3 93 4 92 54 0 c54 0 55 0 55 -29 0 -26 -4 -30 -32 -33 l-33 -3 -1 -100
0 -100 3 98 4 97 34 0 c33 0 35 2 35 35 l0 35 85 0 85 0 0 -50 c0 -49 1 -50
30 -50 l30 0 0 -105 0 -104 -152 -3 -153 -3 -1 -80 -1 -80 6 75 6 75 117 3
117 3 4 -78 3 -78 2 78 2 77 185 0 184 0 4 -77 3 -78 2 83 2 82 -160 0 -160 0
0 105 0 105 55 0 55 0 0 50 0 50 100 0 99 0 4 -142 3 -143 2 148 2 148 -107
-3 -108 -3 -3 -47 -3 -48 -80 0 -79 0 0 109 0 110 53 3 52 3 3 118 3 117 128
0 c94 0 131 -3 134 -12 3 -7 5 3 5 22 0 19 -2 27 -5 18 -4 -17 -24 -18 -239
-18 l-234 0 0 130 0 130 -35 0 c-33 0 -35 -2 -35 -35z m60 -11 c0 -8 -5 -12
-10 -9 -6 4 -8 11 -5 16 9 14 15 11 15 -7z"/>
<path d="M782 2238 c2 -107 6 -132 18 -135 12 -4 12 -3 2 5 -8 5 -12 22 -10
38 2 23 8 29 28 29 22 0 25 -5 28 -37 3 -32 7 -38 25 -37 17 1 18 2 5 6 -13 3
-18 15 -18 39 0 31 3 34 29 34 28 0 30 -3 34 -42 l4 -43 1 43 c2 40 4 42 32
42 27 0 30 -3 30 -34 0 -24 -5 -36 -17 -39 -10 -3 7 -4 37 -4 31 0 41 2 23 4
l-33 4 0 130 0 129 -42 -2 -43 -1 38 -4 37 -4 0 -85 0 -84 -100 0 -100 0 0 84
0 85 48 4 47 3 -53 2 -53 2 3 -132z"/>
<path d="M2818 2333 l222 -3 0 -66 c0 -36 3 -63 8 -61 4 3 5 35 4 71 l-4 66
-226 -2 -227 -3 223 -2z"/>
<path d="M3159 2273 c-1 -32 0 -70 1 -85 2 -35 -27 -39 -33 -5 -3 13 -5 8 -6
-15 -1 -31 2 -38 18 -38 12 0 21 -8 24 -22 l4 -23 2 23 c0 12 6 22 11 22 6 0
10 16 10 35 0 19 -4 35 -10 35 -6 0 -10 27 -10 60 l0 60 198 3 197 2 -202 3
-203 2 -1 -57z m18 -125 c-3 -8 -6 -5 -6 6 -1 11 2 17 5 13 3 -3 4 -12 1 -19z"/>
<path d="M3658 2323 l62 -4 0 -109 c0 -103 1 -110 20 -110 18 0 20 -7 20 -85
l0 -85 -49 0 -50 0 -3 43 -3 42 -247 3 c-230 2 -247 4 -241 20 5 13 3 14 -7 5
-12 -11 -17 -139 -6 -151 3 -3 6 23 6 57 l0 62 73 -3 72 -3 3 -117 3 -118 -25
0 c-13 0 -31 -3 -39 -6 -11 -4 -16 2 -19 23 -3 24 -9 29 -40 34 l-38 6 0 -39
c0 -30 4 -38 18 -37 10 0 12 3 5 6 -7 2 -13 16 -13 29 0 20 5 24 31 24 29 0
31 -2 27 -30 -4 -24 -1 -30 14 -30 13 0 18 -7 18 -25 0 -22 4 -25 35 -25 30 0
35 3 35 24 0 13 6 27 13 29 10 4 10 6 0 6 -10 1 -13 33 -13 126 l0 125 125 0
125 0 0 -115 0 -115 -30 0 c-16 0 -30 -4 -30 -10 0 -5 -33 -11 -72 -13 l-73
-3 73 -2 c65 -2 72 -4 72 -22 0 -16 7 -20 35 -20 l35 0 0 151 0 150 33 -3 c30
-3 32 -6 35 -45 l3 -43 60 0 59 0 0 55 0 55 60 0 60 0 0 -140 0 -140 108 2
107 2 -102 3 -103 4 0 127 c0 86 4 132 12 140 9 9 -5 12 -65 12 l-77 0 0 35
c0 28 -4 35 -20 35 -18 0 -20 8 -22 108 l-3 107 -65 1 -65 0 63 -3z m-359
-572 c12 -8 12 -12 -2 -25 -20 -20 -23 -20 -31 0 -11 29 6 42 33 25z m258 -23
c-3 -8 -6 -5 -6 6 -1 11 2 17 5 13 3 -3 4 -12 1 -19z m-17 2 c0 -5 -4 -10 -10
-10 -5 0 -10 5 -10 10 0 6 5 10 10 10 6 0 10 -4 10 -10z"/>
<path d="M6219 2103 l6 -38 3 33 3 32 125 0 124 0 0 -55 0 -55 -104 0 -105 0
-4 33 c-4 32 -4 32 -5 -5 l-2 -37 108 -4 107 -3 -107 -2 -108 -2 2 -37 c1 -37
1 -37 5 -5 l4 32 105 0 104 0 0 -55 0 -55 -124 0 -125 0 -4 28 -4 27 -2 -27
c-1 -24 -5 -28 -30 -28 -16 0 -32 6 -34 13 -3 7 -6 5 -6 -5 -1 -16 16 -18 182
-20 l182 -3 3 -52 3 -53 -73 -2 c-63 -1 -67 -2 -28 -7 25 -3 60 -4 78 -2 l32
3 0 59 c0 59 0 59 30 59 17 0 30 3 30 8 0 4 -22 5 -50 4 l-50 -4 0 125 c0 111
2 126 18 130 9 3 -53 5 -138 6 l-156 1 5 -37z"/>
<path d="M2360 2050 c0 -16 -5 -30 -11 -30 -8 0 -8 -4 -1 -13 6 -7 13 -53 15
-103 2 -73 3 -65 5 44 1 72 0 132 -3 132 -3 0 -5 -13 -5 -30z"/>
<path d="M3950 2045 c0 -33 2 -35 35 -35 19 0 35 5 35 10 0 6 30 10 70 10 l70
0 0 -134 c0 -98 -3 -136 -12 -140 -7 -3 -5 -5 6 -3 17 2 18 12 17 139 -2 103
1 137 11 141 7 3 -26 6 -74 6 -81 1 -88 3 -88 21 0 16 -7 20 -35 20 -33 0 -35
-2 -35 -35z m48 13 c20 -20 14 -36 -13 -30 -16 3 -25 11 -25 23 0 21 20 25 38
7z"/>
<path d="M5020 2060 c0 -20 -7 -20 -377 -20 l-378 0 3 -62 c3 -48 1 -63 -12
-70 -12 -7 -16 -26 -16 -83 l0 -75 43 1 c23 1 32 4 20 6 -23 4 -23 7 -23 139
l0 134 185 0 185 0 0 -140 0 -140 53 2 52 2 -47 3 -48 4 0 135 0 134 180 0
c113 0 180 -4 180 -10 0 -5 16 -10 35 -10 19 0 35 5 35 10 0 6 9 10 20 10 19
0 20 -7 20 -134 0 -132 0 -135 -22 -139 -20 -4 -19 -4 5 -6 15 0 27 4 27 9 0
6 25 10 55 10 30 0 55 -4 55 -10 0 -6 23 -9 53 -8 44 1 46 2 14 5 -34 4 -38 7
-33 26 3 12 6 28 6 35 0 8 17 12 49 12 30 0 51 -5 54 -12 3 -8 6 -6 6 5 1 14
-8 17 -59 17 -53 0 -60 -2 -60 -20 0 -18 -7 -20 -70 -20 l-70 0 0 110 0 110
38 1 c29 1 24 4 -25 11 -52 8 -63 13 -63 29 0 15 -7 19 -35 19 -28 0 -35 -4
-35 -20z m60 3 c0 -5 -7 -17 -15 -27 -12 -16 -18 -17 -28 -7 -10 10 -8 15 7
27 22 15 36 18 36 7z m-810 -233 c0 -40 -4 -70 -10 -70 -11 0 -14 123 -3 133
12 13 13 7 13 -63z m1000 -57 c0 -12 -3 -14 -8 -6 -4 6 -34 14 -67 16 l-60 3
68 2 c58 2 67 0 67 -15z"/>
<path d="M3040 1930 c0 -73 2 -131 5 -128 7 7 8 249 1 256 -3 3 -6 -55 -6
-128z"/>
<path d="M5420 2046 c0 -8 -8 -17 -17 -19 -17 -4 -17 -5 0 -6 9 0 17 -8 17
-16 0 -10 11 -15 35 -15 24 0 35 5 35 15 0 11 17 15 73 18 l72 3 -72 2 c-57 2
-73 5 -73 17 0 10 -11 15 -35 15 -24 0 -35 -5 -35 -14z m47 -28 c-3 -8 -6 -5
-6 6 -1 11 2 17 5 13 3 -3 4 -12 1 -19z m-17 -4 c0 -8 -4 -12 -10 -9 -5 3 -10
10 -10 16 0 5 5 9 10 9 6 0 10 -7 10 -16z"/>
<path d="M852 2015 c0 -16 2 -22 5 -12 2 9 2 23 0 30 -3 6 -5 -1 -5 -18z"/>
<path d="M5278 2023 c18 -2 45 -2 60 0 15 2 0 4 -33 4 -33 0 -45 -2 -27 -4z"/>
<path d="M5677 2023 c-4 -3 -7 -64 -7 -135 l0 -130 -140 4 c-77 2 -140 0 -140
-5 0 -4 125 -6 278 -5 l277 3 3 138 3 137 -118 -2 -118 -2 113 -3 112 -4 0
-130 0 -130 -127 3 -128 3 0 133 c0 72 0 132 -1 132 0 0 -4 -3 -7 -7z"/>
<path d="M1488 2013 c9 -3 13 -45 14 -151 l2 -147 6 145 5 145 80 6 80 5 -100
1 c-55 1 -94 -1 -87 -4z"/>
<path d="M918 1983 c18 -2 45 -2 60 0 15 2 0 4 -33 4 -33 0 -45 -2 -27 -4z"/>
<path d="M6152 1960 c0 -14 2 -19 5 -12 2 6 2 18 0 25 -3 6 -5 1 -5 -13z"/>
<path d="M990 1931 c0 -9 -20 -12 -72 -11 -142 4 -138 5 -136 -37 1 -37 1 -37
5 -5 l4 32 99 0 c90 0 124 9 106 27 -3 4 -6 1 -6 -6z"/>
<path d="M6152 1788 l-2 -38 45 0 c43 0 45 1 45 30 l0 29 103 4 102 3 -105 0
-105 -1 -3 -27 c-3 -24 -8 -28 -37 -28 -31 0 -34 3 -38 33 -4 31 -4 31 -5 -5z"/>
<path d="M784 1720 l1 -45 203 0 202 -1 -199 3 -200 3 -4 43 -4 42 1 -45z"/>
<path d="M3723 1753 c15 -2 37 -2 50 0 12 2 0 4 -28 4 -27 0 -38 -2 -22 -4z"/>
<path d="M4423 1753 c37 -2 96 -2 130 0 34 2 4 3 -68 3 -71 0 -99 -1 -62 -3z"/>
<path d="M4853 1753 c37 -2 97 -2 135 0 37 2 6 3 -68 3 -74 0 -105 -1 -67 -3z"/>
<path d="M4910 1720 c0 -5 -7 -10 -15 -10 -10 0 -15 -11 -15 -35 0 -33 2 -35
35 -35 19 0 35 5 35 10 0 6 7 10 15 10 8 0 15 5 15 10 0 6 6 10 14 10 19 0 22
-23 18 -147 l-3 -103 -34 0 c-41 0 -44 7 -48 125 -1 44 -3 -8 -3 -115 0 -107
2 -166 3 -130 5 103 8 110 48 110 l35 0 2 -97 c1 -54 5 -6 8 107 l5 205 115 0
115 0 3 -212 2 -213 -57 -1 c-62 -1 -161 -15 -128 -19 11 -1 30 -3 43 -4 12
-2 22 1 22 6 0 4 29 8 65 8 l65 0 0 110 0 110 183 0 c100 0 382 2 627 3 l445
2 1 35 c1 35 1 35 -3 3 l-4 -33 -175 0 -174 0 0 88 c0 48 -3 111 -6 140 -7 51
-7 52 -40 52 -27 0 -34 -4 -34 -20 0 -17 -8 -20 -82 -23 l-83 -3 83 -2 c46 -1
82 -6 82 -12 0 -5 16 -10 35 -10 l36 0 -3 -102 -3 -103 -125 0 -125 0 -3 118
-3 117 -117 -2 -117 -2 113 -3 112 -4 0 -114 0 -115 -125 0 -125 0 -2 103 -2
102 -5 -100 -6 -100 -177 -3 -178 -2 0 92 c0 51 -3 110 -6 131 -6 33 -4 37 14
37 11 0 23 -8 25 -17 4 -14 5 -12 6 5 1 18 -4 22 -29 22 -25 0 -30 -4 -30 -25
l0 -25 -115 0 c-108 0 -115 1 -115 20 0 13 -7 20 -20 20 -13 0 -20 7 -20 20 0
16 -7 20 -35 20 -19 0 -35 -4 -35 -10z m57 -42 c-3 -8 -6 -5 -6 6 -1 11 2 17
5 13 3 -3 4 -12 1 -19z m1153 12 c0 -5 -4 -10 -10 -10 -5 0 -10 5 -10 10 0 6
5 10 10 10 6 0 10 -4 10 -10z m-1206 -39 c-9 -10 -26 18 -18 30 5 9 9 8 14 -7
4 -10 6 -21 4 -23z m36 29 c0 -5 -4 -10 -10 -10 -5 0 -10 5 -10 10 0 6 5 10
10 10 6 0 10 -4 10 -10z m1187 -12 c-3 -8 -6 -5 -6 6 -1 11 2 17 5 13 3 -3 4
-12 1 -19z m-17 -8 c0 -5 -4 -10 -10 -10 -5 0 -10 5 -10 10 0 6 5 10 10 10 6
0 10 -4 10 -10z"/>
<path d="M6410 1696 c0 -23 -2 -24 -102 -25 -56 -1 -104 -4 -107 -6 -2 -3 38
-5 90 -5 52 0 111 -3 132 -6 24 -5 37 -3 37 5 0 6 -9 11 -20 11 -13 0 -20 7
-20 20 0 11 6 20 13 20 18 0 37 -21 37 -41 0 -12 6 -15 25 -12 23 5 24 3 28
-63 l3 -69 2 73 c2 71 2 72 -23 72 -20 0 -25 5 -25 25 0 22 -4 25 -35 25 -30
0 -35 -3 -35 -24z"/>
<path d="M4094 1425 c0 -137 2 -211 3 -162 l4 87 29 0 29 0 4 -77 3 -78 0 80
-1 80 -32 3 c-29 3 -33 7 -33 33 l0 29 85 0 85 0 0 -109 c0 -78 -4 -111 -12
-114 -7 -3 16 -5 52 -4 54 0 57 1 18 4 l-48 4 0 170 0 169 35 0 35 0 0 54 c0
34 5 56 13 59 7 3 5 6 -5 6 -15 1 -18 -8 -18 -54 0 -54 0 -55 -30 -55 -29 0
-30 1 -30 49 0 30 5 51 13 54 6 3 -1 5 -18 5 -16 0 -24 -2 -17 -5 8 -3 12 -36
12 -114 l0 -109 -85 0 -85 0 0 29 c0 26 4 30 33 33 l32 3 1 80 1 80 -6 -75
c-6 -72 -7 -75 -31 -75 -24 0 -25 3 -31 85 -3 47 -5 -27 -5 -165z"/>
<path d="M5408 1663 c34 -2 90 -2 125 0 34 2 6 3 -63 3 -69 0 -97 -1 -62 -3z"/>
<path d="M3180 1649 c-27 -6 -22 -7 23 -3 l57 4 0 -90 0 -90 -36 0 c-49 0 -62
18 -67 86 l-3 59 -2 -62 c-2 -56 -4 -63 -22 -63 -16 0 -20 -7 -20 -35 0 -28 4
-35 20 -35 17 0 20 -8 23 -87 l3 -88 2 88 c1 50 6 87 12 87 6 0 10 9 10 21 0
17 5 20 38 17 l37 -3 3 -67 c3 -63 2 -67 -20 -70 -20 -3 -23 -9 -26 -55 -3
-50 -4 -52 -35 -55 l-32 -3 38 -6 37 -5 0 58 c0 55 1 58 25 58 l25 0 0 170 0
169 103 4 c93 3 91 3 -28 4 -71 0 -146 -3 -165 -8z m-13 -211 c-3 -8 -6 -5 -6
6 -1 11 2 17 5 13 3 -3 4 -12 1 -19z m-17 2 c0 -5 -4 -10 -10 -10 -5 0 -10 5
-10 10 0 6 5 10 10 10 6 0 10 -4 10 -10z"/>
<path d="M3508 1653 c9 -3 12 -59 12 -228 0 -169 -3 -225 -12 -228 -8 -3 -6
-6 5 -6 16 -1 17 17 17 234 0 217 -1 235 -17 234 -11 0 -13 -3 -5 -6z"/>
<path d="M4528 1653 l122 -4 0 -224 0 -224 -122 -4 -123 -3 128 -2 127 -2 0
85 0 85 55 0 55 0 0 -79 0 -80 -42 -4 c-26 -2 -12 -4 35 -5 74 -2 77 -1 76 21
-1 16 -2 18 -6 5 -3 -11 -14 -18 -29 -18 -24 0 -24 0 -24 110 0 110 0 110 24
110 21 0 25 -5 29 -37 l4 -38 1 43 2 42 -62 -1 c-35 -1 -51 -4 -35 -6 21 -3
27 -10 27 -29 0 -22 -3 -24 -55 -24 l-55 0 0 55 0 55 90 0 90 0 -2 48 -1 47
-4 -42 -4 -43 -85 0 -84 0 0 85 0 85 -127 -2 -128 -2 123 -3z"/>
<path d="M4760 1653 c35 -2 68 -9 72 -16 5 -8 8 -6 8 6 0 15 -9 17 -72 15
l-73 -2 65 -3z"/>
<path d="M794 1616 c-3 -8 -4 -29 -1 -48 3 -30 4 -29 5 10 l2 42 120 0 119 0
4 -77 3 -78 0 80 -1 80 -123 3 c-99 2 -123 0 -128 -12z"/>
<path d="M1097 1623 c-4 -3 -7 -33 -7 -65 l0 -58 33 1 c30 2 31 2 4 6 -27 4
-28 6 -25 56 l3 52 40 6 40 6 -41 2 c-22 0 -44 -2 -47 -6z"/>
<path d="M1418 1623 l42 -4 0 -110 0 -110 -57 3 -58 3 -6 90 -6 90 1 -95 1
-95 67 -3 67 -3 3 121 3 120 -50 -2 -50 -1 43 -4z"/>
<path d="M2240 1551 c0 -56 3 -71 15 -71 8 0 15 9 15 20 0 13 7 20 20 20 17 0
20 7 20 45 0 29 -4 45 -12 45 -7 0 -23 3 -35 6 -22 6 -23 4 -23 -65z m60 13
c0 -8 -5 -12 -10 -9 -6 4 -8 11 -5 16 9 14 15 11 15 -7z m-43 -66 c-3 -8 -6
-5 -6 6 -1 11 2 17 5 13 3 -3 4 -12 1 -19z"/>
<path d="M792 1438 c-1 -38 -6 -68 -12 -68 -6 0 -10 -42 -10 -105 0 -94 2
-105 18 -104 10 0 12 3 5 6 -9 3 -13 33 -13 99 l0 94 135 0 135 0 -1 33 c-2
30 -2 30 -6 5 l-4 -28 -119 0 -119 0 -4 68 -3 67 -2 -67z"/>
<path d="M620 1439 c0 -8 4 -19 9 -24 6 -6 12 -32 14 -60 l3 -50 2 55 c1 35
-4 62 -13 74 -11 15 -15 16 -15 5z"/>
<path d="M4832 1290 c0 -14 2 -19 5 -12 2 6 2 18 0 25 -3 6 -5 1 -5 -13z"/>
<path d="M2240 1265 c0 -9 5 -15 11 -13 6 2 11 8 11 13 0 5 -5 11 -11 13 -6 2
-11 -4 -11 -13z"/>
<path d="M620 1215 c0 -33 2 -35 35 -35 33 0 35 2 35 35 0 33 -2 35 -35 35
-33 0 -35 -2 -35 -35z m50 -6 c-12 -21 -31 -22 -37 -2 -4 10 11 18 40 22 4 0
3 -8 -3 -20z"/>
<path d="M2414 1227 c-3 -8 -4 -49 -2 -93 l3 -79 35 -2 c34 -1 34 -1 5 5 l-30
7 -3 83 -3 82 216 0 216 0 -3 -82 -3 -83 -155 -5 c-85 -3 -148 -7 -140 -8 12
-2 15 -24 15 -129 l0 -128 140 0 140 0 0 128 0 127 50 2 50 1 -42 4 -43 4 0
85 0 84 90 0 90 0 0 -80 c0 -74 -2 -81 -22 -90 -23 -10 -23 -10 2 -7 24 2 25
4 28 95 l3 92 -316 0 c-254 0 -317 -3 -321 -13z m359 -184 c-34 -2 -93 -2
-130 0 -37 2 -9 3 62 3 72 0 102 -1 68 -3z m65 -125 l-3 -113 -130 0 -130 0
-3 113 -3 112 136 0 136 0 -3 -112z"/>
<path d="M4920 1198 c0 -4 24 -7 53 -7 54 1 49 5 -15 11 -21 2 -38 0 -38 -4z"/>
<path d="M3308 1193 c28 -2 76 -2 105 0 28 2 5 3 -53 3 -58 0 -81 -1 -52 -3z"/>
<path d="M642 1130 c0 -19 2 -27 5 -17 2 9 2 25 0 35 -3 9 -5 1 -5 -18z"/>
<path d="M4256 1113 c-9 -58 -7 -143 4 -143 5 0 10 -35 12 -77 l3 -78 38 -3
c32 -3 37 -6 37 -29 0 -23 -3 -25 -40 -21 -32 3 -40 0 -38 -12 3 -12 21 -16
81 -18 69 -3 77 -5 77 -22 0 -16 7 -20 35 -20 34 0 35 1 35 38 0 38 0 38 -35
34 -19 -2 -35 -8 -35 -13 0 -5 -9 -9 -20 -9 -17 0 -20 7 -20 50 l0 50 49 0
c43 0 50 -3 54 -22 l4 -23 2 23 c1 21 6 22 70 22 58 0 70 -3 74 -17 4 -17 5
-17 6 0 1 16 20 17 246 17 l245 0 -2 88 -2 87 -3 -82 -4 -83 -209 0 -210 0 0
120 c0 73 4 120 10 120 6 0 10 4 10 8 0 5 -13 9 -30 10 -16 0 -30 -4 -30 -9 0
-5 7 -9 15 -9 13 0 15 -20 15 -120 l0 -120 -105 0 -105 0 0 120 0 120 65 0
c36 0 65 4 65 10 0 6 -51 9 -125 9 -73 0 -125 -4 -125 -9 0 -6 25 -10 55 -10
l55 0 0 -120 0 -120 -100 0 -100 0 0 65 c0 37 -4 65 -10 65 -5 0 -10 23 -10
50 l0 50 35 0 c33 0 35 2 35 35 0 33 -2 35 -34 35 -31 0 -34 -3 -40 -37z m52
15 c20 -20 14 -36 -13 -30 -16 3 -25 11 -25 23 0 21 20 25 38 7z m42 -298 c0
-5 -16 -10 -35 -10 -19 0 -35 5 -35 10 0 6 16 10 35 10 19 0 35 -4 35 -10z
m28 -37 l-3 -48 -50 -1 c-45 -1 -46 -1 -7 3 l42 4 0 45 c0 24 5 44 11 44 6 0
9 -19 7 -47z m92 -63 c0 -11 -7 -20 -15 -20 -8 0 -15 9 -15 20 0 11 7 20 15
20 8 0 15 -9 15 -20z m17 -22 c-3 -8 -6 -5 -6 6 -1 11 2 17 5 13 3 -3 4 -12 1
-19z"/>
<path d="M3790 1105 c0 -33 2 -35 35 -35 19 0 35 4 35 10 0 5 52 11 123 13
l122 3 -122 2 c-116 2 -123 3 -123 22 0 16 -7 20 -35 20 -33 0 -35 -2 -35 -35z
m57 -7 c-3 -8 -6 -5 -6 6 -1 11 2 17 5 13 3 -3 4 -12 1 -19z m-17 3 c0 -6 -4
-13 -10 -16 -5 -3 -10 1 -10 9 0 9 5 16 10 16 6 0 10 -4 10 -9z"/>
<path d="M4810 1125 c0 -8 -7 -15 -15 -15 -8 0 -15 -4 -15 -10 0 -5 7 -10 15
-10 8 0 15 -4 15 -10 0 -5 16 -10 35 -10 19 0 35 5 35 10 0 6 33 10 80 10 47
0 80 4 80 10 0 6 -33 10 -80 10 -64 0 -80 3 -80 15 0 10 -11 15 -35 15 -24 0
-35 -5 -35 -15z m47 -37 c-3 -7 -5 -2 -5 12 0 14 2 19 5 13 2 -7 2 -19 0 -25z
m-17 2 c0 -5 -4 -10 -10 -10 -5 0 -10 5 -10 10 0 6 5 10 10 10 6 0 10 -4 10
-10z"/>
<path d="M5061 1108 c-1 -37 0 -38 33 -38 24 0 36 -5 39 -17 3 -10 5 -5 6 12
1 45 -9 75 -27 75 -12 0 -13 -3 -4 -12 7 -7 12 -21 11 -32 0 -12 -3 -15 -6 -8
-2 6 -13 12 -23 12 -11 0 -20 9 -23 23 -3 13 -5 8 -6 -15z"/>
<path d="M3150 1005 l0 -95 48 2 47 1 -42 4 c-35 3 -43 8 -43 24 0 17 7 19 75
19 l75 0 0 -50 0 -50 -77 -2 -78 -1 75 -7 c41 -4 142 -8 224 -9 129 -1 151 -3
162 -18 13 -17 15 -17 28 0 12 15 35 17 230 17 209 0 216 -1 216 -20 0 -16 7
-20 34 -20 30 0 34 4 40 31 9 44 8 269 -1 269 -5 0 -7 -52 -5 -115 l3 -115
-35 0 c-20 0 -36 -4 -36 -10 0 -6 -65 -10 -176 -10 l-175 0 3 125 c3 120 2
125 -17 124 -11 0 -14 -3 -7 -6 9 -3 12 -38 12 -124 l0 -119 -207 0 -208 0 5
125 5 125 -40 -2 c-37 -1 -38 -2 -7 -5 l32 -4 0 -60 0 -59 -75 0 -75 0 0 59
c0 48 3 60 18 64 13 4 11 5 -5 6 -22 1 -23 -2 -23 -94z m987 -187 c-3 -8 -6
-5 -6 6 -1 11 2 17 5 13 3 -3 4 -12 1 -19z m-17 2 c0 -5 -4 -10 -10 -10 -5 0
-10 5 -10 10 0 6 5 10 10 10 6 0 10 -4 10 -10z"/>
<path d="M3443 1093 c42 -2 112 -2 155 0 42 1 7 3 -78 3 -85 0 -120 -2 -77 -3z"/>
<path d="M641 1043 l-1 -33 -187 -3 -188 -2 188 -3 c202 -2 204 -2 194 50 -3
18 -5 15 -6 -9z"/>
<path d="M2246 1053 c-3 -3 -6 -37 -6 -75 0 -54 3 -68 15 -68 12 0 15 14 15
69 0 65 -8 90 -24 74z m11 -100 c-2 -21 -4 -6 -4 32 0 39 2 55 4 38 2 -18 2
-50 0 -70z"/>
<path d="M160 1031 c0 -5 9 -7 20 -4 14 4 20 0 20 -11 0 -9 5 -16 11 -16 5 0
8 -4 5 -9 -7 -10 -56 -2 -56 10 0 5 -12 8 -27 8 -24 -2 -25 -2 -5 -6 16 -3 22
-12 23 -31 0 -15 3 -21 6 -14 2 6 20 12 39 12 32 0 34 2 34 35 0 33 -2 35 -35
35 -19 0 -35 -4 -35 -9z"/>
<path d="M13 860 c0 -36 2 -50 4 -32 2 17 2 47 0 65 -2 17 -4 3 -4 -33z"/>
<path d="M152 855 c0 -16 2 -22 5 -12 2 9 2 23 0 30 -3 6 -5 -1 -5 -18z"/>
<path d="M2240 850 c0 -5 7 -10 15 -10 8 0 15 5 15 10 0 6 -7 10 -15 10 -8 0
-15 -4 -15 -10z"/>
<path d="M1298 833 c23 -2 61 -2 85 0 23 2 4 4 -43 4 -47 0 -66 -2 -42 -4z"/>
<path d="M152 713 c-2 -40 -6 -53 -17 -53 -8 0 -15 -7 -15 -15 0 -11 -12 -15
-50 -15 l-49 0 -4 58 -3 57 -2 -62 c-2 -61 -1 -63 23 -63 l25 0 2 -207 3 -208
160 0 160 -1 -157 3 -158 3 0 205 0 205 25 0 c16 0 25 -6 25 -15 0 -11 12 -15
50 -15 37 0 50 4 50 15 0 11 18 15 83 18 l82 3 -82 2 c-66 2 -83 5 -83 17 0
10 -10 15 -29 15 -29 0 -30 2 -34 53 l-3 52 -2 -52z m25 -105 c-3 -8 -6 -5 -6
6 -1 11 2 17 5 13 3 -3 4 -12 1 -19z m30 0 c-3 -8 -6 -5 -6 6 -1 11 2 17 5 13
3 -3 4 -12 1 -19z m-47 2 c0 -5 -4 -10 -10 -10 -5 0 -10 5 -10 10 0 6 5 10 10
10 6 0 10 -4 10 -10z"/>
<path d="M3458 753 c111 -2 293 -2 405 0 111 1 20 2 -203 2 -223 0 -314 -1
-202 -2z"/>
<path d="M2425 682 l70 -72 -57 -57 -57 -57 -64 59 c-36 33 -65 63 -66 68 0 4
15 7 34 7 33 0 35 2 35 35 0 33 -2 35 -34 35 -33 0 -35 -2 -38 -37 l-3 -38
-110 -6 -110 -5 114 -2 115 -2 168 -167 c92 -92 168 -162 168 -156 0 6 10 14
23 16 15 3 11 5 -13 6 -29 1 -48 14 -122 88 l-88 88 60 60 60 61 -78 74 -77
75 70 -73z m-127 -4 c20 -20 14 -36 -13 -30 -16 3 -25 11 -25 23 0 21 20 25
38 7z"/>
<path d="M2570 660 c0 -6 53 -10 140 -10 87 0 140 4 140 10 0 6 -53 10 -140
10 -87 0 -140 -4 -140 -10z"/>
<path d="M3600 640 c0 -19 -7 -20 -187 -22 -104 -1 -167 -3 -141 -5 l47 -4 3
-57 3 -57 40 -2 40 -1 -35 6 c-34 7 -35 8 -35 57 l0 50 50 0 50 0 3 -87 3 -88
42 2 42 1 -37 4 -38 4 0 85 0 84 75 0 c43 0 75 -4 75 -10 0 -5 16 -10 35 -10
33 0 35 2 35 35 0 33 -2 35 -35 35 -28 0 -35 -4 -35 -20z m49 -11 c-16 -24
-33 -26 -37 -5 -3 12 11 21 42 25 5 0 2 -8 -5 -20z"/>
<path d="M4490 649 c0 -19 -45 -29 -132 -29 -60 0 -62 -2 -48 -35 8 -19 9 -19
9 3 1 20 6 22 56 22 l55 0 0 -40 0 -39 -62 -4 -63 -3 63 -2 62 -2 0 -44 0 -45
-42 -4 -43 -4 43 -1 42 -2 0 -80 0 -80 -41 0 c-48 0 -66 15 -72 61 -3 31 -4
31 -5 -8 -1 -24 3 -43 8 -43 6 0 10 -7 10 -15 0 -12 -19 -15 -114 -15 l-115 0
-4 53 -3 52 -2 -53 -2 -53 -37 3 c-38 3 -38 4 -44 53 l-6 50 -1 -52 -2 -53
-35 0 -35 0 0 64 c0 53 3 65 18 69 13 4 12 5 -5 6 -20 1 -22 -4 -25 -66 l-3
-68 -39 -3 c-47 -4 -54 2 -66 59 l-9 44 4 -52 4 -53 -54 0 -55 0 0 64 0 65 33
4 c31 4 31 4 -5 5 l-38 2 0 -70 0 -70 -50 0 -50 0 0 64 0 65 33 4 c32 4 32 4
-5 5 l-37 2 -3 -67 -3 -68 -120 0 -120 0 -3 63 -3 62 38 1 38 2 -35 6 c-30 5
-36 11 -41 41 -6 31 -7 29 -8 -17 l-1 -52 -112 -4 -113 -3 112 -2 112 -2 3
-52 3 -53 504 -3 c330 -1 508 1 515 8 5 5 29 10 53 10 l43 0 0 185 0 184 102
3 c90 3 103 5 104 21 1 12 1 13 -3 2 -7 -23 -128 -21 -142 3 -9 15 -10 15 -11
1z"/>
<path d="M460 568 l5 -63 3 58 3 57 139 0 140 0 0 -45 0 -44 -57 -4 -58 -3 60
0 60 1 3 48 c3 42 6 47 27 47 23 0 24 -4 28 -67 l3 -68 2 67 2 68 508 3 c470
2 457 2 -183 5 l-690 2 5 -62z"/>
<path d="M1918 623 c12 -2 30 -2 40 0 9 3 -1 5 -23 4 -22 0 -30 -2 -17 -4z"/>
<path d="M3095 559 c-33 -34 -55 -59 -49 -56 6 4 37 -20 68 -52 31 -33 56 -55
56 -50 0 6 -23 35 -52 65 l-51 54 29 31 c16 18 43 40 59 50 17 11 23 19 15 19
-9 0 -42 -28 -75 -61z"/>
<path d="M3755 611 l40 -6 3 -82 c3 -78 2 -82 -20 -86 -13 -2 12 -5 55 -6 l77
-1 0 50 0 50 35 0 c34 0 35 -1 35 -40 0 -33 -4 -42 -22 -50 -18 -7 -10 -9 32
-8 30 1 43 3 28 5 -26 4 -28 8 -28 49 l0 44 80 0 80 0 0 -44 c0 -44 0 -45 -37
-49 l-38 -4 38 -1 c25 -1 39 3 43 13 7 18 70 20 77 3 3 -8 6 -6 6 5 1 13 -7
17 -39 17 l-40 0 0 69 0 70 48 4 c26 2 -16 3 -93 3 -115 0 -125 -1 -55 -5 l85
-6 3 -32 3 -33 -120 0 -121 0 0 34 c0 19 6 37 13 39 6 3 -4 5 -23 5 -19 0 -27
-2 -17 -5 14 -4 17 -17 17 -89 l0 -84 -46 0 -45 0 3 90 3 90 -50 -1 -50 -2 40
-6z"/>
<path d="M4312 460 c0 -19 2 -27 5 -17 2 9 2 25 0 35 -3 9 -5 1 -5 -18z"/>
<path d="M633 435 c0 -27 2 -38 4 -22 2 15 2 37 0 50 -2 12 -4 0 -4 -28z"/>
<path d="M462 343 c-2 -128 -3 -132 -24 -136 -13 -2 68 -5 180 -6 l202 -1 -2
128 -2 127 -3 -122 -4 -123 -169 0 -170 0 0 90 0 89 68 4 67 3 -67 2 -67 2 -4
38 c-2 20 -4 -22 -5 -95z"/>
<path d="M3598 433 c23 -2 61 -2 85 0 23 2 4 4 -43 4 -47 0 -66 -2 -42 -4z"/>
<path d="M2892 358 c-30 -31 -42 -38 -42 -25 0 13 -8 17 -37 16 -24 -1 -29 -3
-15 -6 12 -2 22 -11 22 -19 0 -8 5 -12 10 -9 6 3 10 -1 10 -9 0 -12 -6 -13
-30 -6 -23 7 -30 5 -30 -6 0 -8 8 -14 17 -14 12 0 0 -17 -37 -55 -45 -46 -56
-52 -69 -42 -14 11 -14 10 -2 -6 13 -17 18 -14 75 42 34 34 67 61 74 61 6 0
12 6 12 13 0 23 35 47 71 48 32 2 32 2 5 6 l-28 5 23 24 c38 40 16 27 -29 -18z"/>
<path d="M3458 373 c18 -2 45 -2 60 0 15 2 0 4 -33 4 -33 0 -45 -2 -27 -4z"/>
<path d="M3818 373 c12 -2 32 -2 45 0 12 2 2 4 -23 4 -25 0 -35 -2 -22 -4z"/>
<path d="M4058 373 c6 -2 18 -2 25 0 6 3 1 5 -13 5 -14 0 -19 -2 -12 -5z"/>
<path d="M4167 373 c18 -2 50 -2 70 0 21 2 7 4 -32 4 -38 0 -55 -2 -38 -4z"/>
</g>
</svg>
